# xmcd CD database file
#
# Track frame offsets:
#	183
#	10508
#	22395
#	36245
#	50195
#	63983
#	76045
#	90608
#	103458
#	118220
#	130233
#	141483
#	153258
#	165358
#	182195
#	200095
#
# Disc length: 2800 seconds
#
# Revision: 3
# Processed by: cddbd v1.5.1PL0 Copyright (c) Steve Scherf et al.
# Submitted via: CDex 1.51
#
DISCID=e40aee10
DTITLE=Jimmie Rodgers - Kisses Sweeter Than Wine [re-recordings]
DYEAR=1987
DGENRE=Country
TTITLE0=Kisses Sweeter Than Wine
TTITLE1=A Good Woman Likes To Drink With The Boys
TTITLE2=Hold Back The World
TTITLE3=Everytime I Sing A Love Song
TTITLE4=Everybody Needs Love
TTITLE5=It´s My Time
TTITLE6=Dancing On The Moon
TTITLE7=When Our Love Began
TTITLE8=Shoveling Coal Missouri
TTITLE9=Just A Closer Walk With Thee
TTITLE10=Waltzing Matilda
TTITLE11=The World I Used To Know
TTITLE12=It´s Over
TTITLE13=I Have You
TTITLE14=Just A Little Time To Say Goodbye
TTITLE15=Honeycomb
EXTD=YEAR: 1987
EXTT0=
EXTT1=
EXTT2=
EXTT3=
EXTT4=
EXTT5=
EXTT6=
EXTT7=
EXTT8=
EXTT9=Yesterday: 11.10.1996
EXTT10=
EXTT11=
EXTT12=
EXTT13=
EXTT14=
EXTT15=Yesterday: 08.11.1996
PLAYORDER=
